<svg width="79" height="32" viewBox="0 0 79 32" fill="none" xmlns="http://www.w3.org/2000/svg">
<g opacity="0.8" clip-path="url(#clip0_658_707)">
<path d="M2.18275 24.3806V31.629H0V15.6084H10.6667L10.955 17.1322C10.9138 17.1322 10.9138 17.1322 10.8726 17.091C10.7902 17.091 10.749 17.091 10.749 17.0498C10.5843 16.8027 9.96654 16.5556 8.93694 16.3085C7.86615 16.0614 6.46589 15.9379 4.69498 15.9379H2.18275V23.9688H9.14286V24.3394H2.18275V24.3806Z" fill="black"/>
<path d="M18.2857 27.099C18.2857 26.6871 18.2857 26.2753 18.2857 25.8634C18.2857 25.4104 18.2446 24.9986 18.2446 24.5455C18.0798 24.9162 17.7915 25.1633 17.3797 25.4104C16.9678 25.6163 16.5148 25.8223 16.0206 25.987C15.5264 26.1517 14.991 26.3165 14.4556 26.44C13.9202 26.6048 13.3848 26.7695 12.9318 27.0166C12.4788 27.2637 12.1081 27.552 11.8198 27.9226C11.5316 28.2933 11.3668 28.7875 11.3668 29.3641C11.3668 30.023 11.5316 30.4761 11.861 30.8055C12.1905 31.135 12.6435 31.2997 13.2201 31.2997C13.7967 31.2997 14.538 31.135 15.3205 30.7643C16.1442 30.3937 17.0502 29.8583 18.0386 29.1582C17.7915 29.4053 17.4621 29.6936 17.0502 30.023C16.6384 30.3525 16.1442 30.6408 15.6088 30.9291C15.0734 31.2174 14.538 31.4645 14.0026 31.6292C13.426 31.8351 12.9318 31.9175 12.4788 31.9175C12.1081 31.9175 11.6963 31.8763 11.3256 31.7939C10.955 31.7116 10.5843 31.588 10.2549 31.3821C9.92538 31.1762 9.67828 30.9291 9.47236 30.5996C9.26644 30.2701 9.14288 29.8171 9.14288 29.2817C9.14288 28.8287 9.26644 28.4168 9.51354 28.0874C9.76064 27.7579 10.0901 27.4696 10.502 27.2225C10.9138 26.9754 11.408 26.7695 11.9434 26.6048C12.4788 26.44 13.0142 26.2753 13.5908 26.1517C14.1673 25.987 14.7027 25.8634 15.2381 25.7399C15.7735 25.6163 16.2677 25.4516 16.6796 25.2869C17.1326 25.1221 17.4621 24.9162 17.7503 24.7103C17.9974 24.4632 18.1622 24.2161 18.2034 23.8866C18.121 23.3924 18.0386 22.9394 17.8739 22.4863C17.7503 22.0333 17.5444 21.6627 17.2973 21.3332C17.0502 21.0037 16.7207 20.7566 16.3501 20.5507C15.9794 20.3448 15.4852 20.3036 14.9498 20.3036C14.1262 20.3448 13.5084 20.4271 13.0965 20.5919C12.6847 20.7566 12.3964 20.9625 12.1905 21.2096C11.9846 21.4567 11.9434 21.7039 11.9434 21.9921C11.9434 22.2804 11.9434 22.5275 11.9434 22.7746C11.9434 23.0629 11.861 23.2688 11.6963 23.4336C11.5316 23.5983 11.3256 23.6395 11.0785 23.6395C10.8314 23.6395 10.5843 23.5571 10.3372 23.3512C10.0901 23.1453 10.0077 22.8982 10.0077 22.5687C10.0077 22.1157 10.2137 21.7039 10.5843 21.3744C10.955 21.0449 11.4492 20.7566 11.9846 20.5507C12.52 20.3448 13.0966 20.18 13.6731 20.0977C14.2497 20.0153 14.7027 19.9741 15.0734 19.9741C16.2265 19.9741 17.1738 20.1389 17.8739 20.4683C18.574 20.7978 19.1094 21.2508 19.4801 21.7862C19.8507 22.3216 20.0978 22.9806 20.2214 23.7219C20.3449 24.4632 20.3861 25.2045 20.3861 26.0282V31.6704H18.3269V27.099H18.2857Z" fill="black"/>
<path d="M24.9164 30.8057C25.1223 31.094 25.4517 31.2999 25.9048 31.4235C26.3578 31.547 26.8108 31.6294 27.3462 31.6294C27.8404 31.6294 28.3758 31.5882 28.87 31.4646C29.4054 31.3411 29.8584 31.1763 30.2703 30.9704C30.6821 30.7645 31.0528 30.5174 31.2999 30.1879C31.5882 29.8996 31.7117 29.529 31.7117 29.1171C31.7117 28.6229 31.5058 28.2111 31.0528 27.9228C30.5997 27.6345 30.0232 27.3874 29.3642 27.1815C28.7053 26.9756 27.964 26.7697 27.1815 26.6049C26.399 26.4402 25.6577 26.1931 24.9987 25.946C24.3398 25.6577 23.7632 25.3282 23.3102 24.8752C22.8571 24.4222 22.6512 23.8456 22.6512 23.1455C22.6512 22.4865 22.816 21.9511 23.1454 21.5393C23.4749 21.1274 23.9279 20.798 24.4221 20.5509C24.9575 20.3038 25.4929 20.139 26.1107 20.0567C26.7284 19.9743 27.2638 19.9331 27.7992 19.9331C28.0463 19.9331 28.3758 19.9743 28.7877 20.0155C29.1995 20.0567 29.6113 20.1802 29.982 20.3449C30.3526 20.5097 30.7233 20.6744 31.0116 20.9215C31.2999 21.1686 31.4646 21.4981 31.4646 21.8688C31.4646 22.1159 31.3822 22.3218 31.1763 22.4865C30.9704 22.6513 30.7645 22.7336 30.5174 22.7336C30.1879 22.7336 29.982 22.6513 29.8173 22.5277C29.6525 22.4041 29.5701 22.2394 29.4878 22.0335C29.4054 21.8688 29.3642 21.6628 29.323 21.4569C29.2819 21.251 29.2407 21.0863 29.1171 20.9627C28.9112 20.7156 28.6641 20.5097 28.417 20.4273C28.1287 20.3449 27.7992 20.2626 27.4286 20.2626C27.0167 20.2626 26.6049 20.3038 26.1931 20.3861C25.74 20.4685 25.3694 20.5921 24.9987 20.7568C24.6281 20.9215 24.3398 21.1686 24.1339 21.4157C23.8867 21.704 23.8044 22.0335 23.8044 22.4041C23.8044 22.7748 23.9279 23.1043 24.2162 23.3514C24.4633 23.5985 24.834 23.8044 25.2458 24.0103C25.6577 24.1751 26.1519 24.3398 26.7284 24.4634C27.2638 24.5869 27.8404 24.7105 28.417 24.8752C28.9936 25.0399 29.5701 25.2047 30.1055 25.3694C30.6409 25.5341 31.1351 25.7812 31.5882 26.0283C32 26.2754 32.3707 26.6049 32.6178 26.9756C32.8649 27.3462 33.0296 27.8404 33.0296 28.3758C33.0296 28.9936 32.8649 29.529 32.5354 29.982C32.2059 30.435 31.7941 30.7645 31.2587 31.0528C30.7233 31.3411 30.1467 31.547 29.4878 31.6706C28.8288 31.7941 28.1287 31.8765 27.4286 31.8765C27.1815 31.8765 26.9344 31.8765 26.6049 31.8353C26.2754 31.7941 25.946 31.7941 25.5753 31.7117C25.2046 31.6706 24.8752 31.5882 24.5045 31.4646C24.1339 31.3823 23.8456 31.2587 23.5573 31.094C23.269 30.9292 23.0631 30.7645 22.8571 30.5586C22.6924 30.3527 22.61 30.1056 22.61 29.7761C22.61 29.529 22.6924 29.3643 22.8983 29.1995C23.1043 29.0348 23.3102 28.9524 23.5573 28.9524C23.8868 28.9524 24.0927 29.0348 24.2574 29.1583C24.4221 29.2819 24.5045 29.4466 24.5869 29.6525C24.6281 29.8585 24.7104 30.0232 24.7104 30.2291C24.7516 30.5174 24.834 30.6821 24.9164 30.8057Z" fill="black"/>
<path d="M34.5946 15.6086L36.6538 14.4966V31.6703H34.5946V15.6086ZM36.9009 21.3331C37.0656 21.086 37.3128 20.8801 37.5599 20.7154C37.807 20.5506 38.0952 20.3859 38.4247 20.3035C38.7542 20.2212 39.0425 20.0976 39.372 20.0564C39.7014 20.0152 39.9897 19.9741 40.3192 19.9741C41.2664 19.9741 42.0489 20.0976 42.6667 20.3035C43.2844 20.5095 43.8198 20.8389 44.1905 21.2096C44.6023 21.5802 44.8906 22.0333 45.0965 22.5275C45.3025 23.0217 45.4672 23.5571 45.5496 24.0925C45.6319 24.669 45.6731 25.2044 45.7143 25.8222C45.7143 26.3988 45.7143 26.9754 45.7143 27.5107V31.6703H43.6551V27.3048C43.6551 26.893 43.6551 26.4811 43.6551 25.9869C43.6551 25.4927 43.6139 24.9985 43.5727 24.4631C43.5315 23.9277 43.408 23.4335 43.2844 22.9393C43.1609 22.4451 42.955 22.0333 42.7079 21.6214C42.4608 21.2508 42.0901 20.9213 41.6783 20.7154C41.2664 20.4683 40.731 20.3447 40.0721 20.3447C39.5367 20.3447 39.1248 20.3859 38.7542 20.4683C38.3835 20.5506 38.0952 20.633 37.8481 20.7154C37.601 20.7977 37.3951 20.9213 37.2716 21.0448C37.1068 21.1684 36.9833 21.2508 36.9009 21.3331Z" fill="black"/>
<path d="M50.3814 19.6036V31.6293H48.3222V20.7155L50.3814 19.6036Z" fill="black"/>
<path d="M47.7577 16.0611C47.4331 16.2318 46.6312 16.3076 46.6312 16.3076V16.611C46.6312 16.611 47.4331 16.6869 47.7577 16.8576C48.0632 17.0282 48.3305 17.2558 48.5215 17.5592C48.7315 17.8625 48.8652 18.2039 48.9606 18.6021C49.0561 19.0003 49.0943 19.3435 49.0943 19.3435H49.3616C49.3616 19.3435 49.4559 18.7991 49.4953 18.6021C49.5907 18.2039 49.7435 17.8625 49.9344 17.5592C50.1254 17.2558 50.3736 17.0282 50.6982 16.8576C51.0228 16.6869 51.8248 16.611 51.8248 16.611V16.3076C51.8248 16.3076 51.0228 16.2318 50.6982 16.0611C50.3927 15.8905 50.1254 15.6629 49.9344 15.3595C49.7244 15.0561 49.5907 14.7148 49.4953 14.3166C49.4515 14.0819 49.3616 13.4839 49.3616 13.4839H49.0943C49.0943 13.4839 49.0055 14.165 48.9606 14.3166C48.8652 14.7148 48.7124 15.0561 48.5215 15.3595C48.3305 15.6629 48.0823 15.8905 47.7577 16.0611Z" fill="black"/>
<path d="M52.8583 25.946C52.8583 25.1635 52.9819 24.4222 53.229 23.6809C53.4761 22.9395 53.8879 22.3218 54.4233 21.7452C54.9587 21.1686 55.6177 20.7568 56.4002 20.4273C57.1827 20.0978 58.1299 19.9331 59.2007 19.9331C60.2715 19.9331 61.2187 20.0978 62.0012 20.4273C62.7837 20.7568 63.4426 21.2098 63.978 21.7864C64.5134 22.363 64.8841 22.9807 65.1312 23.722C65.3783 24.4222 65.5018 25.2047 65.5018 25.946C65.5018 26.7285 65.3783 27.4698 65.1312 28.2111C64.8841 28.9524 64.4722 29.5702 63.9368 30.1467C63.4015 30.7233 62.7425 31.1352 61.96 31.4646C61.1775 31.7941 60.2303 31.9588 59.2007 31.9588C58.1711 31.9588 57.1827 31.7941 56.4002 31.4646C55.6177 31.1352 54.9587 30.6821 54.4233 30.1056C53.8879 29.529 53.5173 28.9112 53.229 28.1699C52.9819 27.4698 52.8583 26.7285 52.8583 25.946ZM58.1299 20.4273C57.4298 20.4273 56.8532 20.592 56.4002 20.9215C55.9471 21.251 55.5765 21.6628 55.3294 22.157C55.0823 22.6513 54.9587 23.269 54.8764 23.928C54.8352 24.5869 54.8764 25.287 54.9999 25.9872C55.1235 26.6873 55.3294 27.3462 55.6589 28.0464C55.9471 28.7053 56.3178 29.2819 56.7708 29.8173C57.2238 30.3115 57.7181 30.7645 58.2946 31.0528C58.8712 31.3823 59.489 31.547 60.1891 31.547C60.8892 31.547 61.4246 31.3823 61.8776 31.0528C62.3307 30.7233 62.6601 30.3115 62.9072 29.8173C63.1543 29.3231 63.2779 28.7053 63.3603 28.0464C63.4014 27.3874 63.3603 26.6873 63.2367 25.9872C63.1132 25.287 62.8661 24.6281 62.5778 23.928C62.2895 23.269 61.9188 22.6924 61.4658 22.157C61.0128 21.6628 60.5186 21.2098 59.942 20.9215C59.3654 20.6332 58.83 20.4273 58.1299 20.4273Z" fill="black"/>
<path d="M67.2684 20.7155L69.3276 19.6035V31.6293H67.2684V20.7155ZM69.5336 21.3332C69.6983 21.0861 69.9454 20.8802 70.1925 20.7155C70.4396 20.5507 70.7279 20.386 71.0574 20.3036C71.3868 20.2213 71.6751 20.0977 72.0046 20.0565C72.3341 20.0154 72.6224 19.9742 72.9518 19.9742C73.8991 19.9742 74.6816 20.0977 75.2993 20.3036C75.9171 20.5096 76.4525 20.839 76.8231 21.2097C77.235 21.5804 77.5233 22.0334 77.7292 22.5276C77.9351 23.0218 78.0998 23.5572 78.1822 24.0926C78.2646 24.6692 78.3058 25.2045 78.3469 25.8223C78.3469 26.3989 78.3469 26.9755 78.3469 27.5109V31.6704H76.2877V27.3049C76.2877 26.8931 76.2877 26.4813 76.2877 25.987C76.2877 25.4928 76.2466 24.9986 76.2054 24.4632C76.1642 23.9278 76.0406 23.4336 75.9171 22.9394C75.7935 22.4452 75.5876 22.0334 75.3405 21.6215C75.0934 21.2509 74.7227 20.9214 74.3109 20.7155C73.8991 20.4684 73.3637 20.3448 72.7047 20.3448C72.1693 20.3448 71.7575 20.386 71.3868 20.4684C71.0162 20.5507 70.7279 20.6331 70.4808 20.7155C70.2337 20.7979 70.0278 20.9214 69.9042 21.045C69.7395 21.1685 69.6159 21.2509 69.5336 21.3332Z" fill="black"/>
<path d="M22.4813 0.864746C24.1287 0.864746 25.5701 1.11185 26.8057 1.56487C28.0412 2.05908 29.0708 2.67684 29.8945 3.45934C30.7181 4.24184 31.3359 5.1067 31.7477 6.1363C32.1596 7.12472 32.3655 8.15432 32.3655 9.22511C32.3655 10.2547 32.1596 11.2843 31.7477 12.2727C31.3359 13.2611 30.7181 14.1672 29.8945 14.9497C29.0708 15.7322 28.0412 16.3499 26.8057 16.8442C25.5701 17.3384 24.1287 17.5855 22.4813 17.5855C20.834 17.5855 19.3925 17.3384 18.157 16.8442C16.9215 16.3499 15.8919 15.7322 15.0682 14.9497C14.2445 14.1672 13.6268 13.2611 13.2149 12.2727C12.8031 11.2843 12.5972 10.2547 12.5972 9.22511C12.5972 8.15432 12.8031 7.1659 13.2149 6.1363C13.6268 5.14789 14.2445 4.24184 15.0682 3.45934C15.8919 2.67684 16.9215 2.05908 18.157 1.56487C19.3925 1.11185 20.834 0.864746 22.4813 0.864746ZM23.7169 17.0501C24.9524 17.0501 26.0232 16.8442 26.888 16.3911C27.7529 15.9381 28.453 15.3615 28.9884 14.6202C29.5238 13.8789 29.8533 13.0552 30.018 12.108C30.1827 11.1608 30.1827 10.2135 30.0592 9.22511C29.8945 8.23669 29.6062 7.28946 29.112 6.34222C28.6178 5.39499 28.0412 4.57131 27.2999 3.83C26.5586 3.08868 25.6937 2.51211 24.6641 2.05908C23.6345 1.60606 22.5225 1.40014 21.287 1.40014C20.0103 1.40014 18.9395 1.60606 18.0746 2.05908C17.2098 2.51211 16.5097 3.08868 16.0154 3.83C15.48 4.57131 15.1506 5.39499 14.9858 6.34222C14.8211 7.28946 14.8211 8.23669 14.9447 9.22511C15.1094 10.2135 15.3977 11.1608 15.8507 12.108C16.3037 13.0552 16.9215 13.8789 17.6628 14.6202C18.4041 15.3615 19.3102 15.9381 20.2986 16.3911C21.3282 16.803 22.4813 17.0501 23.7169 17.0501Z" fill="black"/>
<path d="M34.5946 4.73599L36.6538 3.62402V10.4606C36.695 11.1607 36.8185 11.8608 37.0245 12.4786C37.2304 13.0964 37.5187 13.6729 37.9305 14.126C38.3012 14.579 38.7542 14.9908 39.3308 15.2379C39.8662 15.5262 40.4839 15.6498 41.1841 15.6498C42.0489 15.6498 42.7079 15.3615 43.2433 14.8261C43.7786 14.2907 44.1081 13.5906 44.314 12.7669C44.52 11.9432 44.5611 11.0372 44.4788 10.0899C44.3964 9.14268 44.1493 8.23664 43.7786 7.41296C43.408 6.58927 42.9138 5.88915 42.296 5.35375C41.6783 4.81836 40.9369 4.53007 40.1133 4.53007C39.825 4.53007 39.4955 4.57126 39.2072 4.69481C38.9189 4.81836 38.6306 4.94191 38.3424 5.10665C38.0541 5.27138 37.807 5.47731 37.601 5.68323C37.3539 5.88915 37.1892 6.13625 37.0656 6.34217C37.3951 5.64204 37.9305 5.06546 38.6306 4.61244C39.372 4.15942 40.1544 3.9535 40.9781 3.9535C42.0077 3.9535 42.8726 4.11823 43.6139 4.4477C44.3552 4.77718 44.9318 5.2302 45.426 5.80678C45.879 6.38335 46.2497 7.00111 46.4556 7.74243C46.6615 8.48374 46.7851 9.18387 46.7851 9.96637C46.7851 10.7489 46.6615 11.449 46.4556 12.1903C46.2497 12.8904 45.879 13.5494 45.426 14.126C44.973 14.7025 44.3552 15.1556 43.6139 15.485C42.8726 15.8145 42.0077 16.0204 41.0193 16.0204C39.9485 16.0204 39.0425 15.8557 38.3424 15.5674C37.6422 15.2791 37.1068 14.8673 36.695 14.3731V21.4155H34.6358V4.73599H34.5946Z" fill="black"/>
<path d="M51.5954 7.90716C51.5954 8.68966 51.7189 9.47216 51.966 10.2958C52.2131 11.1195 52.5838 11.8196 53.0368 12.5198C53.4898 13.1787 54.0664 13.7141 54.7254 14.126C55.3843 14.5378 56.1256 14.7437 56.9081 14.7437C57.6494 14.7437 58.3084 14.579 58.8849 14.2907C59.4615 13.9612 59.9557 13.5906 60.3676 13.1787C60.7794 12.7669 61.1089 12.3139 61.3148 11.902C61.5619 11.4902 61.6855 11.1607 61.6855 10.9548C61.6443 11.4902 61.4384 12.0668 61.1089 12.6021C60.7794 13.1375 60.3676 13.6317 59.8322 14.0848C59.2968 14.5378 58.7202 14.8673 58.0201 15.1556C57.3199 15.4027 56.5786 15.5674 55.7961 15.5674C54.7254 15.5674 53.7781 15.4027 52.9956 15.0732C52.2131 14.7437 51.5542 14.2907 51.0188 13.7141C50.4834 13.1375 50.1127 12.5198 49.8245 11.7785C49.5773 11.0783 49.4538 10.2958 49.4538 9.55453C49.4538 8.52492 49.6185 7.66006 49.948 6.91875C50.2775 6.17743 50.7305 5.55967 51.2659 5.06546C51.8013 4.57126 52.419 4.2006 53.1192 3.99468C53.8193 3.74758 54.5194 3.62402 55.2196 3.62402C55.755 3.62402 56.2903 3.70639 56.7846 3.87113C57.3199 4.03586 57.773 4.28297 58.226 4.61244C58.679 4.94191 59.0497 5.31257 59.3792 5.72441C59.7086 6.17743 59.9557 6.63046 60.1616 7.16585C60.244 7.41296 60.2028 7.61888 60.0793 7.78361C59.9557 7.94835 59.7498 8.03072 59.4615 8.03072H51.5954V7.90716ZM54.8077 3.91231C54.2723 3.91231 53.8193 3.99468 53.4075 4.2006C52.9956 4.40652 52.6662 4.65362 52.419 4.9831C52.1719 5.31257 51.966 5.72441 51.8013 6.13625C51.6777 6.58927 51.5954 7.0423 51.5542 7.53651H58.3084C58.226 7.24822 58.1024 6.91875 57.9377 6.50691C57.773 6.09507 57.5259 5.68323 57.2376 5.31257C56.9493 4.94191 56.6198 4.61244 56.208 4.32415C55.7961 4.03586 55.3019 3.91231 54.8077 3.91231Z" fill="black"/>
<path d="M62.8037 4.61246L64.8629 3.50049V15.5262H62.8037V4.61246ZM65.11 5.23022C65.2748 4.98311 65.5219 4.77719 65.769 4.61246C66.0161 4.44772 66.3044 4.28298 66.6338 4.20062C66.9633 4.07706 67.2516 3.9947 67.5811 3.95351C67.9105 3.91233 68.1988 3.87114 68.5283 3.87114C69.4755 3.87114 70.258 3.9947 70.8758 4.20062C71.4935 4.40654 72.0289 4.73601 72.3996 5.10667C72.8114 5.47732 73.0997 5.93035 73.3056 6.42456C73.5116 6.91876 73.6763 7.45416 73.7587 7.98955C73.841 8.56612 73.8822 9.10152 73.9234 9.71928C73.9234 10.2959 73.9234 10.8724 73.9234 11.4078V15.5674H71.8642V11.2019C71.8642 10.7901 71.8642 10.3782 71.8642 9.84283C71.8642 9.34862 71.823 8.85441 71.7818 8.31902C71.7406 7.78363 71.6171 7.28942 71.4935 6.79521C71.37 6.301 71.1641 5.88916 70.917 5.47732C70.6699 5.10667 70.2992 4.77719 69.8874 4.53009C69.4755 4.28298 68.9401 4.15943 68.2812 4.15943C67.7458 4.15943 67.334 4.20062 66.9633 4.28298C66.5926 4.36535 66.3044 4.44772 66.0573 4.53009C65.8101 4.61246 65.6042 4.73601 65.4807 4.85956C65.3159 5.0243 65.1924 5.14785 65.11 5.23022Z" fill="black"/>
</g>
<defs>
<clipPath id="clip0_658_707">
<rect width="78.0849" height="32" fill="white"/>
</clipPath>
</defs>
</svg>
